<svg xmlns="http://www.w3.org/2000/svg" width="182" height="50.434" viewBox="0 0 182 50.434">
  <g id="Group_28" data-name="Group 28" transform="translate(-250 -5822.283)">
    <g id="Group_26" data-name="Group 26" transform="translate(250 5822.283)">
      <path id="Path_3" data-name="Path 3" d="M2.94,25.217,16.175,2.547h26.44l13.214,22.67L42.615,47.887H16.155ZM14.72,0,0,25.217,14.7,50.434H44.07L58.788,25.217,44.07,0Z" fill="#404041"/>
      <path id="Path_4" data-name="Path 4" d="M42.716,5.7H41.007L20.686,40.892v-.026L19.6,42.751,10.014,26.345,20.37,8.613h7.778L17.292,27.394l1.683,2.9L33.181,5.7H18.7L6.647,26.345,18.7,46.992h1.808l.061-.114.013,0h0L41.868,10.031l3.917,6.694L29.993,44.076H29.97l-1.685,2.916h3.393l2.2-3.813L47.466,19.623l3.917,6.721-6.3,10.831-5.673,9.816h3.3L54.773,26.345Z" transform="translate(-1.316 -1.128)" fill="#f15e38"/>
    </g>
    <text id="EDULAUNCH" transform="translate(318 5854.353)" fill="#404041" font-size="18" font-family="SegoeUIBlack, Segoe UI"><tspan x="0" y="0">EDULAUNCH</tspan></text>
  </g>
</svg>
