<svg xmlns="http://www.w3.org/2000/svg" width="59" height="50.615" viewBox="0 0 59 50.615"><path d="M2.951,25.308,16.234,2.556H42.769L56.03,25.308,42.769,48.059H16.213ZM14.773,0,0,25.308,14.753,50.615H44.229L59,25.308,44.229,0Z" fill="#404041"/><path d="M38.259,5.7h-1.5L18.951,36.547v-.023L18,38.177,9.6,23.8,18.674,8.253h6.817L15.977,24.716l1.475,2.54L29.9,5.7H17.214L6.647,23.8l10.567,18.1H18.8l.053-.1.011,0h0L37.516,9.5l3.433,5.868L27.108,39.339h-.02l-1.477,2.556h2.974l1.931-3.342L42.422,17.9,45.855,23.8l-5.52,9.494-4.972,8.6h2.9L48.826,23.8Z" transform="translate(1.764 1.512)" fill="#404041"/></svg>