<svg xmlns="http://www.w3.org/2000/svg" xmlns:xlink="http://www.w3.org/1999/xlink" width="1923.233" height="1244.26" viewBox="0 0 1923.233 1244.26"><defs><linearGradient id="a" x1="-0.461" y1="1.127" x2="1" y2="0.229" gradientUnits="objectBoundingBox"><stop offset="0" stop-color="#fad4e5"/><stop offset="0.315" stop-color="#fad4e5"/><stop offset="1" stop-color="#9dccee"/></linearGradient></defs><path d="M0,3074s109.062-67.247,312.181,70.53C393.226,3199.5,489.985,3261.58,591,3273.264c152.849,17.679,307.912-36.006,373-58.5,108.3-37.42,327.346-9.6,357,0s157.669,41.206,266.681,58.5c152.2,24.14,296.574-72.182,333.673-140.9v-834.75s-163.174,36.1-259.354,0-321.568-159.529-390.076-174.884S1028.411,2099.11,948,2116.922s-209.323,65.616-357,48.982-167.193-140.121-377-132.793S-1.879,2062.863-1.879,2062.863Z" transform="translate(1.879 -2032.798)" fill="url(#a)"/></svg>