<svg xmlns="http://www.w3.org/2000/svg" xmlns:xlink="http://www.w3.org/1999/xlink" width="1923.293" height="785.038" viewBox="0 0 1923.293 785.038"><defs><linearGradient id="a" x1="-0.677" y1="1.403" x2="1" y2="0.411" gradientUnits="objectBoundingBox"><stop offset="0" stop-color="#fad4e5"/><stop offset="0.315" stop-color="#fad4e5"/><stop offset="1" stop-color="#9dccee"/></linearGradient></defs><path d="M0,2682.8s86.984-108.449,290.1-22.437c81.045,34.318,201.234,126.83,302.249,134.124,152.849,11.037,188.912-24.279,254-38.318,108.3-23.361,237.92-53.716,341-46.686s228.86,63.973,337.872,74.767c152.2,15.07,359.029-22.114,396.128-65.012v-521.12s-207.636,68.275-361,0-288.493-91.955-357-101.541a789.972,789.972,0,0,0-221.153,0c-80.411,11.12-242.169,61.22-389.847,50.836S408.529,2007.1,198.724,2011.671s-200.6,39.9-200.6,39.9Z" transform="translate(1.939 -2011.553)" fill="url(#a)"/></svg>